<svg width="27" height="28" viewBox="0 0 27 28" fill="none" xmlns="http://www.w3.org/2000/svg">
<path d="M13.5381 13.6875C10.0518 13.6875 7.22461 10.5967 7.20996 6.83203C7.20996 3.11133 10.0664 0.108398 13.5381 0.108398C17.0391 0.108398 19.8662 3.05273 19.8662 6.80273C19.8662 10.582 17.0244 13.6875 13.5381 13.6875ZM13.5381 11.4756C15.6914 11.4756 17.5078 9.39551 17.5078 6.80273C17.5078 4.25391 15.7207 2.32031 13.5381 2.32031C11.3701 2.32031 9.56836 4.2832 9.56836 6.83203C9.56836 9.4248 11.3994 11.4756 13.5381 11.4756ZM4.32422 27.2373C1.89258 27.2373 0.735352 26.5049 0.735352 24.8936C0.735352 21.0557 5.58398 15.5039 13.5381 15.5039C21.4775 15.5039 26.3262 21.0557 26.3262 24.8936C26.3262 26.5049 25.1689 27.2373 22.7373 27.2373H4.32422ZM3.63574 25.0254H23.4404C23.8213 25.0254 23.9678 24.9229 23.9678 24.6152C23.9678 22.2129 20.2471 17.7158 13.5381 17.7158C6.81445 17.7158 3.09375 22.2129 3.09375 24.6152C3.09375 24.9229 3.25488 25.0254 3.63574 25.0254Z" fill="#7993AE"/>
</svg>
