<svg width="41" height="32" viewBox="0 0 41 32" fill="none" xmlns="http://www.w3.org/2000/svg">
<path d="M32.9951 15.6035C28.9082 15.6035 25.5537 12.2637 25.5537 8.16211C25.5537 4.08984 28.9082 0.720703 32.9951 0.720703C37.0674 0.720703 40.4365 4.08984 40.4365 8.16211C40.4365 12.2344 37.0234 15.6035 32.9951 15.6035ZM12.8975 24.7441C10.7734 24.7441 9.6748 23.4404 9.36719 21.3604L7.02344 5.27637H2.07227C1.48633 5.27637 0.988281 4.76367 0.988281 4.16309C0.988281 3.57715 1.48633 3.06445 2.07227 3.06445H7.21387C8.70801 3.06445 9.11816 3.63574 9.26465 4.76367L9.54297 6.62402H23.6494C23.5469 7.2832 23.5029 8.16211 23.5762 8.83594H9.86523L11.1104 17.332L28.6299 17.3174C29.04 17.3174 29.3184 17.1855 29.5381 16.8926C30.6367 17.376 31.8232 17.625 33.083 17.625C32.5264 18.8848 31.5449 19.5293 30.0215 19.5293H11.4326L11.667 21.0674C11.7988 21.9609 12.3115 22.5469 13.1465 22.5469H29.9922C30.5635 22.5469 31.0615 23.0156 31.0615 23.6455C31.0615 24.2754 30.5635 24.7441 29.9922 24.7441H12.8975ZM28.3369 8.16211C28.3369 8.71875 28.6885 9.07031 29.2305 9.07031H32.0869V11.9268C32.0869 12.4688 32.4531 12.835 32.9951 12.835C33.5371 12.835 33.8887 12.4688 33.8887 11.9268V9.07031H36.7451C37.2871 9.07031 37.6533 8.71875 37.6533 8.16211C37.6533 7.62012 37.2871 7.26855 36.7451 7.26855H33.8887V4.41211C33.8887 3.87012 33.5371 3.50391 32.9951 3.50391C32.4531 3.50391 32.0869 3.87012 32.0869 4.41211V7.26855H29.2305C28.6885 7.26855 28.3369 7.62012 28.3369 8.16211ZM14.0547 31.8633C12.7217 31.8633 11.667 30.8232 11.667 29.4902C11.667 28.1719 12.7217 27.1172 14.0547 27.1172C15.373 27.1172 16.4277 28.1719 16.4277 29.4902C16.4277 30.8232 15.373 31.8633 14.0547 31.8633ZM27.751 31.8633C26.4326 31.8633 25.3633 30.8232 25.3633 29.4902C25.3633 28.1719 26.4326 27.1172 27.751 27.1172C29.084 27.1172 30.1387 28.1719 30.1387 29.4902C30.1387 30.8232 29.084 31.8633 27.751 31.8633Z" fill="#7993AE"/>
</svg>
