<svg width="37" height="41" viewBox="0 0 37 41" fill="none" xmlns="http://www.w3.org/2000/svg">
<path d="M8.22383 1.64001L5.8275 23.78H17.02C17.02 24.3662 17.3033 24.9075 17.76 25.199V26.461C17.3033 26.7557 17.02 27.2938 17.02 27.88C17.02 28.4662 17.3033 29.0075 17.76 29.299V35.26H13.32C11.6868 35.26 10.36 36.7303 10.36 38.54V39.36H26.64V38.54C26.64 36.7303 25.3132 35.26 23.68 35.26H19.24V29.299C19.6967 29.0043 19.98 28.4662 19.98 27.88C19.98 27.2938 19.6967 26.7525 19.24 26.461V25.199C19.6967 24.9043 19.98 24.3662 19.98 23.78H31.1725L28.7762 1.64001H8.22383Z" fill="#7993AE"/>
</svg>
