<svg width="37" height="41" viewBox="0 0 37 41" fill="none" xmlns="http://www.w3.org/2000/svg">
<g clip-path="url(#clip0_63_264)">
<path d="M30.0508 35.5506C29.2552 35.5506 28.6069 34.8323 28.6069 33.9507V32.3507H30.0508C32.3523 32.3507 32.9385 31.4836 32.9385 31.4836V33.9507C32.9385 34.8323 32.2902 35.5506 31.4946 35.5506H30.0508Z" fill="#7993AE"/>
<path d="M5.50538 35.5506C4.70983 35.5506 4.06154 34.8323 4.06154 33.9507V31.4836C4.06154 31.4836 4.64774 32.3507 6.94923 32.3507H8.39308V33.9507C8.39308 34.8323 7.74479 35.5506 6.94923 35.5506H5.50538Z" fill="#7993AE"/>
<path d="M37 18.7513C37 16.7081 35.5042 15.0506 33.6604 15.0506C32.2281 15.0506 31.0153 16.0554 30.5417 17.4601L28.9578 21.3912C28.8394 21.3096 24.0501 19.6424 18.5895 19.6424C13.1289 19.6424 8.15051 21.3176 8.02923 21.4008L6.52907 17.7129C6.12335 16.1802 4.85565 15.0522 3.33962 15.0522C1.49582 15.0522 0 16.7081 0 18.7529C0 20.4536 1.04246 21.8711 2.45309 22.3047L3.07106 28.1909C3.72368 30.6884 6.94923 30.7508 6.94923 30.7508H30.0508C30.0508 30.7508 33.2763 30.6884 33.9289 28.1877L34.5469 22.3015C35.9561 21.8695 37 20.452 37 18.7513Z" fill="#7993AE"/>
<path d="M3.33962 13.1307C5.52271 13.1307 7.48201 14.7274 8.1534 17.0314L8.88399 18.8313C10.2975 18.2665 15.3799 17.7225 18.591 17.7225C21.714 17.7225 26.7241 18.2281 28.1102 18.7881L28.9405 16.7258C29.6927 14.5722 31.5827 13.1307 33.6618 13.1307C33.8149 13.1307 33.9607 13.1659 34.1123 13.1803C34.1123 13.1707 34.1138 13.1595 34.1138 13.1499C34.1138 8.89727 31.0037 5.4494 27.1645 5.4494C26.6823 5.4494 10.3206 5.4494 9.83837 5.4494C6.00063 5.4494 2.88914 8.89567 2.88914 13.1499C2.88914 13.1595 2.89058 13.1707 2.89058 13.1803C3.04074 13.1675 3.18657 13.1307 3.33962 13.1307Z" fill="#7993AE"/>
</g>
<defs>
<clipPath id="clip0_63_264">
<rect width="37" height="41" fill="white"/>
</clipPath>
</defs>
</svg>
