<svg width="37" height="31" viewBox="0 0 37 31" fill="none" xmlns="http://www.w3.org/2000/svg">
<path d="M30.0508 30.5506C29.2552 30.5506 28.6069 29.8323 28.6069 28.9507V27.3507H30.0508C32.3523 27.3507 32.9385 26.4836 32.9385 26.4836V28.9507C32.9385 29.8323 32.2902 30.5506 31.4946 30.5506H30.0508Z" fill="#7993AE"/>
<path d="M5.50538 30.5506C4.70983 30.5506 4.06154 29.8323 4.06154 28.9507V26.4836C4.06154 26.4836 4.64774 27.3507 6.94923 27.3507H8.39308V28.9507C8.39308 29.8323 7.74479 30.5506 6.94923 30.5506H5.50538Z" fill="#7993AE"/>
<path d="M37 13.7513C37 11.7081 35.5042 10.0506 33.6604 10.0506C32.2281 10.0506 31.0153 11.0554 30.5417 12.4601L28.9578 16.3912C28.8394 16.3096 24.0501 14.6424 18.5895 14.6424C13.1289 14.6424 8.15051 16.3176 8.02923 16.4008L6.52907 12.7129C6.12335 11.1802 4.85565 10.0522 3.33962 10.0522C1.49582 10.0522 0 11.7081 0 13.7529C0 15.4536 1.04246 16.8711 2.45309 17.3047L3.07106 23.1909C3.72368 25.6884 6.94923 25.7508 6.94923 25.7508H30.0508C30.0508 25.7508 33.2763 25.6884 33.9289 23.1877L34.5469 17.3015C35.9561 16.8695 37 15.452 37 13.7513Z" fill="#7993AE"/>
<path d="M3.33962 8.1307C5.52271 8.1307 7.48201 9.72744 8.1534 12.0314L8.88399 13.8313C10.2975 13.2665 15.3799 12.7225 18.591 12.7225C21.714 12.7225 26.7241 13.2281 28.1102 13.7881L28.9405 11.7258C29.6927 9.57225 31.5827 8.1307 33.6618 8.1307C33.8149 8.1307 33.9607 8.1659 34.1123 8.1803C34.1123 8.1707 34.1138 8.1595 34.1138 8.1499C34.1138 3.89727 31.0037 0.449402 27.1645 0.449402C26.6823 0.449402 10.3206 0.449402 9.83837 0.449402C6.00063 0.449402 2.88914 3.89567 2.88914 8.1499C2.88914 8.1595 2.89058 8.1707 2.89058 8.1803C3.04074 8.1675 3.18657 8.1307 3.33962 8.1307Z" fill="#7993AE"/>
</svg>
