<svg width="30" height="28" viewBox="0 0 30 28" fill="none" xmlns="http://www.w3.org/2000/svg">
<path d="M14.1094 26.9297L13.5713 27.7727L13.583 27.78L14.1094 26.9297ZM15.1641 4.42969L14.2851 4.90666L15.157 6.51319L16.0397 4.91262L15.1641 4.42969ZM16.2334 26.9297L16.7421 27.7906L16.7573 27.7817L16.7721 27.7722L16.2334 26.9297ZM15.1641 26.3252C15.1924 26.3252 15.1916 26.3291 15.1541 26.3197C15.1197 26.3112 15.071 26.2957 15.0097 26.271C14.8852 26.221 14.7498 26.15 14.6357 26.0794L13.583 27.78C13.7766 27.8998 14.0147 28.0266 14.2638 28.1267C14.4937 28.2191 14.8207 28.3252 15.1641 28.3252V26.3252ZM14.6474 26.0868C6.43057 20.842 1.61816 14.9647 1.61816 9.27832H-0.381836C-0.381836 16.0724 5.26474 22.4705 13.5713 27.7726L14.6474 26.0868ZM1.61816 9.27832C1.61816 4.58253 4.79054 1.43066 8.77734 1.43066V-0.569336C3.56492 -0.569336 -0.381836 3.60302 -0.381836 9.27832H1.61816ZM8.77734 1.43066C11.2081 1.43066 13.1263 2.77122 14.2851 4.90666L16.043 3.95271C14.5944 1.28347 12.0595 -0.569336 8.77734 -0.569336V1.43066ZM16.0397 4.91262C17.2302 2.75406 19.1229 1.43066 21.5508 1.43066V-0.569336C18.2658 -0.569336 15.7639 1.27133 14.2884 3.94675L16.0397 4.91262ZM21.5508 1.43066C25.5376 1.43066 28.71 4.58253 28.71 9.27832H30.71C30.71 3.60302 26.7632 -0.569336 21.5508 -0.569336V1.43066ZM28.71 9.27832C28.71 14.965 23.8972 20.8423 15.6947 26.0872L16.7721 27.7722C25.0638 22.4702 30.71 16.0721 30.71 9.27832H28.71ZM15.7247 26.0688C15.5953 26.1452 15.452 26.2186 15.3234 26.2698C15.2599 26.295 15.21 26.3109 15.1748 26.3196C15.1366 26.3291 15.1357 26.3252 15.1641 26.3252V28.3252C15.5072 28.3252 15.8341 28.2191 16.0631 28.1279C16.3117 28.029 16.5493 27.9046 16.7421 27.7906L15.7247 26.0688Z" fill="#7993AE"/>
</svg>
