<svg width="36" height="32" viewBox="0 0 36 32" fill="none" xmlns="http://www.w3.org/2000/svg">
<path d="M0.735352 15.6035C0.735352 15.2666 0.881836 14.915 1.2041 14.6514L16.4678 1.83398C17.5664 0.911133 18.9141 0.911133 19.998 1.83398L27.4688 8.10352V5.33496C27.4688 4.69043 27.8936 4.28027 28.5234 4.28027H30.0908C30.7354 4.28027 31.1455 4.69043 31.1455 5.33496V11.1943L35.2471 14.6514C35.5547 14.915 35.7012 15.208 35.7012 15.6475C35.7012 16.3506 35.1445 16.7754 34.4561 16.7754C34.0459 16.7754 33.709 16.5557 33.416 16.3066L18.7529 4.00195C18.4307 3.70898 18.0352 3.70898 17.7129 4.00195L3.0498 16.3066C2.74219 16.5557 2.40527 16.7754 1.99512 16.7754C1.2041 16.7754 0.735352 16.2041 0.735352 15.6035ZM5.30566 28.6846V17.0684L17.3467 6.97559C17.8887 6.52148 18.5479 6.50684 19.1045 6.97559L31.1455 17.0684V28.6846C31.1455 30.7061 29.9297 31.9072 27.8643 31.9072H8.60156C6.53613 31.9072 5.30566 30.7061 5.30566 28.6846ZM22.0049 29.5488V19.8662C22.0049 19.1924 21.5654 18.7529 20.8916 18.7529H15.5742C14.9004 18.7529 14.4463 19.1924 14.4463 19.8662V29.5488H22.0049Z" fill="#7993AE"/>
</svg>
