<svg width="37" height="41" viewBox="0 0 37 41" fill="none" xmlns="http://www.w3.org/2000/svg">
<g clip-path="url(#clip0_63_271)">
<path d="M33.9167 3.41669H3.08333C2.67446 3.41669 2.28233 3.59667 1.99321 3.91705C1.70409 4.23742 1.54167 4.67194 1.54167 5.12502V29.0417C1.54167 29.4948 1.70409 29.9293 1.99321 30.2497C2.28233 30.57 2.67446 30.75 3.08333 30.75H16.9583V34.1667H10.0208C9.61196 34.1667 9.21983 34.3467 8.93071 34.667C8.64159 34.9874 8.47917 35.4219 8.47917 35.875C8.47917 36.3281 8.64159 36.7626 8.93071 37.083C9.21983 37.4034 9.61196 37.5834 10.0208 37.5834H26.9792C27.388 37.5834 27.7802 37.4034 28.0693 37.083C28.3584 36.7626 28.5208 36.3281 28.5208 35.875C28.5208 35.4219 28.3584 34.9874 28.0693 34.667C27.7802 34.3467 27.388 34.1667 26.9792 34.1667H20.0417V30.75H33.9167C34.3255 30.75 34.7177 30.57 35.0068 30.2497C35.2959 29.9293 35.4583 29.4948 35.4583 29.0417V5.12502C35.4583 4.67194 35.2959 4.23742 35.0068 3.91705C34.7177 3.59667 34.3255 3.41669 33.9167 3.41669Z" fill="#7993AE"/>
</g>
<defs>
<clipPath id="clip0_63_271">
<rect width="37" height="41" fill="white"/>
</clipPath>
</defs>
</svg>
